<?xml version="1.0" encoding="utf-8"?>
<!-- Generator: Adobe Illustrator 24.1.2, SVG Export Plug-In . SVG Version: 6.00 Build 0)  -->
<svg version="1.1" id="Layer_1" xmlns="http://www.w3.org/2000/svg" xmlns:xlink="http://www.w3.org/1999/xlink" x="0px" y="0px"
	 viewBox="0 0 492 492" style="enable-background:new 0 0 492 492;" xml:space="preserve">
<style type="text/css">
	.st0{fill:#FFFFFF;}
</style>
<g>
	<g>
		<path class="st0" d="M442.7,268.5l-16.1-16.1c-5.1-5.1-11.8-7.9-19-7.9c-7.2,0-14.6,2.8-19.6,7.9L283.7,356V26.9
			C283.7,12.1,272.9,0,258,0h-22.8c-14.8,0-28.4,12.1-28.4,26.9v330.2l-104-104.7c-5.1-5.1-11.4-7.9-18.7-7.9
			c-7.2,0-13.8,2.8-18.8,7.9l-16,16.1c-10.5,10.5-10.4,27.6,0,38.1l177.6,177.6c5.1,5.1,11.8,7.9,19.1,7.9h0.1c7.2,0,14-2.8,19-7.9
			l177.5-177.6C453.2,296.1,453.2,279,442.7,268.5z"/>
	</g>
</g>
</svg>
